<?xml version="1.0" ?><svg style="fill:hsla(160, 100%, 37%, 1);" viewBox="0 0 512 512" xmlns="http://www.w3.org/2000/svg"><title/><g data-name="1" id="_1"><path d="M375.64,450H146.77a50.17,50.17,0,0,1-50.11-50.11V98.11A50.17,50.17,0,0,1,146.77,48h150.1a15,15,0,0,1,10.6,4.39L421.35,166.27a15,15,0,0,1,4.4,10.61v223A50.17,50.17,0,0,1,375.64,450ZM146.77,78a20.13,20.13,0,0,0-20.11,20.11V399.89A20.13,20.13,0,0,0,146.77,420H375.64a20.13,20.13,0,0,0,20.11-20.11V183.09L290.65,78Z"/><path d="M410.75,191.88H332a50.17,50.17,0,0,1-50.11-50.11V63a15,15,0,0,1,30,0v78.77A20.13,20.13,0,0,0,332,161.88h78.77a15,15,0,0,1,0,30Z"/><path d="M261.2,359a112.7,112.7,0,0,1-101.5-63.7,15,15,0,0,1,0-13.06,112.72,112.72,0,0,1,203,0,15,15,0,0,1,0,13.06A112.68,112.68,0,0,1,261.2,359Zm-71-70.23a82.71,82.71,0,0,0,141.93,0,82.72,82.72,0,0,0-141.93,0Z"/><path d="M261.2,319.27l-1.5,0-1.5-.12c-.49-.05-1-.11-1.48-.18s-1-.16-1.48-.26l-1.46-.33c-.48-.13-1-.26-1.43-.41s-1-.3-1.42-.47-.94-.34-1.39-.53-.92-.4-1.37-.61-.9-.43-1.33-.67-.88-.48-1.31-.73-.85-.52-1.26-.8-.83-.56-1.22-.86-.8-.6-1.19-.92-.77-.64-1.14-1-.73-.69-1.09-1-.7-.72-1-1.09-.66-.75-1-1.14-.62-.78-.92-1.18-.58-.81-.86-1.23-.54-.83-.8-1.26-.5-.86-.73-1.3-.46-.89-.67-1.34-.41-.9-.6-1.36-.37-.93-.54-1.39-.33-.95-.47-1.42-.28-1-.4-1.44-.23-1-.33-1.46-.19-1-.26-1.47-.14-1-.19-1.49-.09-1-.11-1.49,0-1,0-1.51,0-1,0-1.5.06-1,.11-1.5.11-1,.19-1.48.16-1,.26-1.48.21-1,.33-1.45.25-1,.4-1.44.3-.95.47-1.42.35-.93.54-1.39.39-.92.6-1.37.44-.89.67-1.33.48-.88.73-1.3.53-.85.8-1.27.57-.82.86-1.22.61-.8.92-1.19.64-.77,1-1.13.68-.74,1-1.09.72-.71,1.09-1,.76-.66,1.14-1,.78-.62,1.19-.92.81-.58,1.22-.86.84-.54,1.26-.79.87-.5,1.31-.74.88-.45,1.33-.67.91-.41,1.37-.6.92-.37,1.39-.54.94-.32,1.42-.47,1-.28,1.43-.4l1.46-.33c.49-.1,1-.19,1.48-.26s1-.14,1.48-.19,1-.08,1.5-.11c1-.05,2-.05,3,0,.49,0,1,.06,1.49.11s1,.12,1.49.19,1,.16,1.47.26,1,.21,1.46.33,1,.26,1.44.4.95.3,1.41.47.94.35,1.4.54.91.39,1.36.6l1.34.67c.43.24.87.48,1.3.74s.85.52,1.26.79.83.57,1.23.86.8.61,1.18.92.77.65,1.14,1,.74.68,1.09,1,.7.71,1,1.09.67.75,1,1.13.63.79.92,1.19.58.81.86,1.22.54.84.8,1.27.5.86.73,1.3.46.88.67,1.33.41.91.6,1.37.37.92.54,1.39.33.94.47,1.42.28,1,.4,1.44.24,1,.33,1.45.19,1,.26,1.48.14,1,.19,1.48.09,1,.11,1.5,0,1,0,1.5,0,1,0,1.51-.06,1-.11,1.49-.11,1-.19,1.49-.16,1-.26,1.47-.21,1-.33,1.46-.25,1-.4,1.44-.3.95-.47,1.42-.35.93-.54,1.39-.39.92-.6,1.36-.44.9-.67,1.34-.48.87-.73,1.3-.53.85-.8,1.26-.56.83-.86,1.23-.6.8-.92,1.18-.64.77-1,1.14-.68.74-1,1.09-.72.7-1.09,1-.75.66-1.14,1-.78.63-1.18.92-.81.59-1.23.86-.84.54-1.26.8-.87.5-1.3.73-.89.46-1.34.67-.91.42-1.36.61-.93.37-1.4.53-.94.33-1.41.47-1,.28-1.44.41-1,.23-1.46.33-1,.18-1.47.26-1,.13-1.49.18-1,.09-1.49.12S261.7,319.27,261.2,319.27Z"/></g></svg>